<?xml version="1.0" encoding="UTF-8"?>
<svg width="20px" height="20px" viewBox="0 0 20 20" version="1.1" xmlns="http://www.w3.org/2000/svg" xmlns:xlink="http://www.w3.org/1999/xlink">
    <!-- Generator: sketchtool 55.2 (78181) - https://sketchapp.com -->
    <title>bb4e7e4c-061e-4bb5-8ea4-ab254709e8f4@1.00x</title>
    <desc>Created with sketchtool.</desc>
    <g id="autocomplete" stroke="none" stroke-width="1" fill="none" fill-rule="evenodd" stroke-linecap="round" stroke-linejoin="round">
        <g id="icon/error/offline" stroke="#979797" stroke-width="2">
            <path d="M18.9963751,4.76688972 C18.3698376,4.34011879 17.7114187,3.95668035 17.0254298,3.62088584 M13.7483545,2.44148646 C12.5460174,2.15286729 11.2908607,2 10,2 C6.69820623,2 3.63000493,3.00012824 1.08181346,4.71396735" id="Shape"></path>
            <path d="M16.6871987,8.02928429 C15.8176228,7.44492084 14.8674079,6.9713049 13.8567578,6.62864022 M10,5.9956665 C7.51022642,5.9956665 5.19748844,6.75364597 3.27995499,8.05143595" id="Shape"></path>
            <path d="M12.2869761,14.666658 C11.6421714,14.2282478 10.8635067,13.9720337 10.025,13.9720337 C9.2083238,13.9720337 8.44841421,14.2150804 7.81365726,14.6327878" id="Path"></path>
            <path d="M14.5048628,11.3879967 C13.2218109,10.5121416 11.670714,10 10,10" id="Path"></path>
            <path d="M3,16 L18,2" id="Line-8-Copy"></path>
            <path d="M10,18 L10.05,18" id="Line-9"></path>
        </g>
    </g>
</svg>