<?xml version="1.0" encoding="UTF-8"?>
<svg width="20px" height="20px" viewBox="0 0 20 20" version="1.1" xmlns="http://www.w3.org/2000/svg" xmlns:xlink="http://www.w3.org/1999/xlink">
    <!-- Generator: sketchtool 55.2 (78181) - https://sketchapp.com -->
    <title>1c947b1e-eb2b-4ad3-ac34-75998ca8847a@1.00x</title>
    <desc>Created with sketchtool.</desc>
    <g id="autocomplete" stroke="none" stroke-width="1" fill="none" fill-rule="evenodd">
        <g id="icon/action/external" fill="#7E8BA1" fill-rule="nonzero">
            <path d="M4.82352941,6.05882353 L4.82352941,15.1764706 L13.9411765,15.1764706 L13.9411765,12.4411765 C13.9411765,11.9376227 14.3493874,11.5294118 14.8529412,11.5294118 C15.3564949,11.5294118 15.7647059,11.9376227 15.7647059,12.4411765 L15.7647059,16.0882353 C15.7647059,16.591789 15.3564949,17 14.8529412,17 L3.91176471,17 C3.40821096,17 3,16.591789 3,16.0882353 L3,5.14705882 C3,4.64350508 3.40821096,4.23529412 3.91176471,4.23529412 L7.55882353,4.23529412 C8.06237727,4.23529412 8.47058824,4.64350508 8.47058824,5.14705882 C8.47058824,5.65061257 8.06237727,6.05882353 7.55882353,6.05882353 L4.82352941,6.05882353 Z M10.0269706,11.2622647 C9.79804975,11.4992839 9.45905251,11.5943409 9.14027273,11.5109003 C8.82149296,11.4274598 8.5725402,11.178507 8.48909965,10.8597273 C8.4056591,10.5409475 8.50071606,10.2019503 8.73773529,9.97302941 L14.4818529,4.23073529 L11.2213824,4.23073529 C10.8895876,4.24124202 10.5783995,4.07022973 10.4093947,3.78451036 C10.2403899,3.49879099 10.2403899,3.14370901 10.4093947,2.85798964 C10.5783995,2.57227027 10.8895876,2.40125798 11.2213824,2.41176471 L16.6792059,2.41176471 C16.9206024,2.41130696 17.1522386,2.50701998 17.3228464,2.67779895 C17.4934543,2.84857791 17.5889636,3.08031002 17.5882353,3.32170588 L17.5882353,8.77952941 C17.598742,9.11132421 17.4277297,9.42251227 17.1420104,9.59151707 C16.856291,9.76052186 16.501209,9.76052186 16.2154896,9.59151707 C15.9297703,9.42251227 15.758758,9.11132421 15.7692647,8.77952941 L15.7692647,5.51723529 L10.0269706,11.2622647 Z" id="external"></path>
        </g>
    </g>
</svg>