<?xml version="1.0" encoding="UTF-8"?>
<svg width="15px" height="15px" viewBox="0 0 15 15" version="1.1" xmlns="http://www.w3.org/2000/svg" xmlns:xlink="http://www.w3.org/1999/xlink">
    <!-- Generator: sketchtool 55.2 (78181) - https://sketchapp.com -->
    <title>67ddc381-274d-431d-a5d3-cf7d76b0c2cd@1.00x</title>
    <desc>Created with sketchtool.</desc>
    <g id="autocomplete" stroke="none" stroke-width="1" fill="none" fill-rule="evenodd" stroke-linecap="round" stroke-linejoin="round">
        <g id="light/footer/key/esc" fill-rule="nonzero" stroke="#7E8BA1">
            <path d="M13.6167337,8.93599037 C13.5102412,9.2942938 12.9284476,9.89794268 12.1291915,9.89794268 C11.3299354,9.89794268 10.476295,8.9815299 10.476295,7.77215533 L10.476295,7.20436816 C10.476295,5.94964204 11.2657983,5.10277517 12.1291915,5.10277517 C12.9925846,5.10277517 13.4893364,5.58059532 13.6167337,6.17518075 M9,6 C8.86478471,5.52650257 8.24941503,5.07810537 7.54008548,5.10277517 C6.83075593,5.12744496 6.19600545,5.67280617 6.19600545,6.31942015 C6.19600545,6.96603413 6.61582974,7.20056152 7.54045132,7.29986572 C8.4650729,7.39916992 8.96798545,7.9337231 9,8.5 C9.03201455,9.0662769 8.54603841,9.89794268 7.54045132,9.89794268 C6.65925929,9.89794268 6,9 5.9630371,8.48521892 M4.48822602,9.02197266 C4.22473145,9.6161499 3.67834884,9.89794268 2.94392628,9.89794268 C2.20950372,9.89794268 1.2365649,9.27317984 1.2365649,7.69401142 L1.2365649,7.23372021 C1.2365649,6.19205827 1.95759349,5.10277517 2.94392628,5.10277517 C3.93025907,5.10277517 4.58636475,6.13360596 4.48822602,7.35192871 L1.53226299,7.35192871" id="Shape"></path>
        </g>
    </g>
</svg>