<?xml version="1.0" encoding="UTF-8"?>
<svg width="77px" height="19px" viewBox="0 0 77 19" version="1.1" xmlns="http://www.w3.org/2000/svg" xmlns:xlink="http://www.w3.org/1999/xlink">
    <!-- Generator: sketchtool 55.2 (78181) - https://sketchapp.com -->
    <title>EE8C1461-B989-46C5-8B49-7EEB61DCD522@1.00x</title>
    <desc>Created with sketchtool.</desc>
    <g id="autocomplete" stroke="none" stroke-width="1" fill="none" fill-rule="evenodd">
        <g id="light/footer/powered_by" transform="translate(-58.000000, -2.000000)" fill="#5468FF">
            <path d="M60.5067301,2.00000354 L74.5312344,2.00000354 C75.9152769,2.00093758 77.0370322,3.12045556 77.0379645,4.50173751 L77.0379645,18.4999565 C77.0365656,19.8807724 75.9148104,20.9995353 74.5312344,21.0000035 L60.5067301,21.0000035 C59.1231541,20.9995353 58.0013989,19.8807724 58,18.4999565 L58,4.49583322 C58.0004476,3.83301258 58.2648816,3.19755403 58.7350578,2.729423 C59.2052341,2.26129197 59.8425856,1.99888771 60.5067301,2.00000354 Z M95.9500009,17.0695032 C92.2431505,17.0863017 92.2431505,14.0835505 92.2431505,13.6061468 L92.2372344,2.35763816 L94.4980244,2.00000711 L94.4980244,13.1793512 C94.4980244,13.4509484 94.4980244,15.1682522 95.9500009,15.173313 L95.9500009,17.0695032 Z M86.7834484,15.2306689 C87.4773207,15.2306689 87.9920202,15.1910259 88.3512111,15.1218614 L88.3512111,12.8284679 C87.9165878,12.7170965 87.469658,12.6607041 87.020937,12.6606056 C86.7670938,12.6600534 86.5136031,12.6795138 86.2628328,12.7188169 C86.0242527,12.7496669 85.7920644,12.8179888 85.5748765,12.9212496 C85.3720393,13.019092 85.2038534,13.157421 85.0829962,13.3353931 C84.956223,13.5142086 84.8979073,13.6179554 84.8979073,13.888709 C84.8979073,14.4184079 85.0829962,14.7245873 85.4185228,14.9261765 C85.7540494,15.1277657 86.2112783,15.2315124 86.7834484,15.2315124 L86.7834484,15.2306689 Z M86.5865272,7.04901525 C87.3327992,7.04901525 87.9632849,7.14095342 88.4720683,7.32567323 C88.9808517,7.50954958 89.3915971,7.7684947 89.6924723,8.09744778 C89.9992636,8.43146169 90.2071718,8.87512662 90.3347902,9.34831298 C90.4674796,9.82065588 90.5308662,10.3393896 90.5308662,10.9087315 L90.5308662,16.7067405 C90.0073065,16.8103133 89.480833,16.898634 88.9521164,16.9715899 C88.2472571,17.0753366 87.4545015,17.1276317 86.574695,17.1276317 C85.991538,17.1276317 85.4531742,17.0694324 84.9731261,16.9606248 C84.5267082,16.867317 84.1038185,16.6848416 83.7299029,16.4241782 C83.388192,16.1751557 83.1123403,15.8468782 82.9261603,15.4676839 C82.7351553,15.0754706 82.6362721,14.5229981 82.6362721,13.9469084 C82.6362721,13.3935925 82.7461423,13.0418657 82.9608117,12.6606175 C83.1773112,12.2839077 83.4806498,11.9641147 83.8456891,11.7277403 C84.2217832,11.4856646 84.6485865,11.3127533 85.1404668,11.2090066 C85.6463699,11.1038019 86.1618821,11.0515054 86.6786491,11.0529647 C87.2402632,11.0544448 87.7997195,11.1223969 88.345295,11.2553974 L88.345295,10.8859578 C88.345295,10.6270127 88.3157146,10.3798761 88.252328,10.1487655 C88.1911529,9.92207555 88.0803054,9.71177021 87.9277884,9.53303279 C87.761619,9.34582835 87.5513163,9.20291065 87.3158961,9.11720235 C87.0073383,9.00058139 86.6798191,8.94195715 86.3498838,8.94429111 C85.8292682,8.94429111 85.3551362,9.00755132 84.9215716,9.0826201 C84.5599692,9.13903297 84.2037524,9.22565237 83.8566761,9.34156523 L83.5853813,7.49268019 C83.8685083,7.39399426 84.2902407,7.2961518 84.8345206,7.19830935 C85.4124444,7.09303016 85.9990797,7.04275866 86.5865272,7.04817178 L86.5865272,7.04901525 Z M131.246215,15.1682522 C131.940932,15.1682522 132.454787,15.1277657 132.813132,15.0586012 L132.813132,12.7643643 C132.378487,12.6531068 131.931572,12.5967162 131.482858,12.5965138 C131.234383,12.5965138 130.979991,12.6142267 130.725599,12.6547132 C130.487022,12.6855771 130.254836,12.7538984 130.037643,12.8571459 C129.839863,12.9493417 129.670131,13.09225 129.545763,13.2712894 C129.418989,13.4501049 129.361519,13.5538517 129.361519,13.8246054 C129.361519,14.3543042 129.545763,14.6604836 129.881289,14.8620728 C130.222732,15.0687228 130.674045,15.1674087 131.246215,15.1674087 L131.246215,15.1682522 Z M131.05521,6.99156578 C131.801482,6.99156578 132.431967,7.08275403 132.940751,7.26747384 C133.449534,7.45219365 133.86028,7.71113877 134.161155,8.03924839 C134.461185,8.36820148 134.675854,8.8177707 134.802628,9.29011359 C134.939905,9.79930592 135.00617,10.3249588 134.999549,10.852219 L134.999549,16.6493846 C134.653035,16.7236099 134.125658,16.8096438 133.420799,16.914234 C132.71594,17.0179807 131.923184,17.0694324 131.043378,17.0694324 C130.46022,17.0694324 129.921857,17.0120764 129.441809,16.9024254 C128.995455,16.8093738 128.572569,16.6271871 128.198585,16.3668223 C127.856874,16.1177998 127.581023,15.7895223 127.394843,15.4103279 C127.203838,15.0181146 127.104955,14.4656422 127.104955,13.888709 C127.104955,13.3353931 127.214825,12.9836663 127.429494,12.6032616 C127.649235,12.2237003 127.943348,11.9116166 128.314372,11.6695409 C128.690466,11.4283087 129.117269,11.2553974 129.609149,11.1516507 C130.373592,10.9935864 131.158199,10.9565833 131.934171,11.0419996 C132.212227,11.0706776 132.50127,11.1229727 132.813132,11.1980415 L132.813132,10.8294453 C132.815645,10.5804283 132.784661,10.3322011 132.72101,10.0914096 C132.660137,9.86434868 132.549263,9.6537051 132.396471,9.4748334 C132.230204,9.28793652 132.01991,9.1453144 131.784579,9.05984643 C131.476016,8.94324427 131.1485,8.88462066 130.818566,8.88693519 C130.297951,8.88693519 129.823819,8.9501954 129.390254,9.02526418 C129.028663,9.08173542 128.672451,9.16835364 128.325359,9.2842093 L128.054064,7.43448079 C128.337191,7.33663834 128.758923,7.23879588 129.303203,7.14095342 C129.881565,7.03906425 130.467912,6.98909978 131.05521,6.99156578 Z M124.265233,5.91961073 C123.507588,5.92054486 122.892116,5.30931902 122.889321,4.55318914 C122.889321,3.79828398 123.502058,3.18676863 124.265233,3.18676863 C125.029254,3.18676863 125.642836,3.79828398 125.642836,4.55318914 C125.642836,5.3080943 125.023338,5.91961073 124.265233,5.91961073 Z M125.404502,17.0702758 L123.13188,17.0702758 L123.13188,7.34085568 L125.405348,6.98406811 L125.405348,17.0685889 L125.404502,17.0702758 Z M121.420441,17.0703466 C117.713591,17.0871452 117.713591,14.084394 117.713591,13.6061468 L117.70683,2.35763816 L119.968465,2.00000711 L119.968465,13.1793512 C119.968465,13.4509484 119.968465,15.1682522 121.420441,15.173313 L121.420441,17.0694324 L121.420441,17.0703466 Z M114.069282,12.0912756 C114.069282,11.116225 113.855458,10.3039639 113.438796,9.73968281 C113.022135,9.16865399 112.438978,8.88777866 111.69186,8.88777866 C110.946434,8.88777866 110.361586,9.16865399 109.946615,9.73968281 C109.529954,10.3098682 109.327116,11.116225 109.327116,12.0912756 C109.327116,13.076448 109.535025,13.7385715 109.952531,14.3096003 C110.368348,14.8856899 110.95235,15.1682522 111.698622,15.1682522 C112.444049,15.1682522 113.028896,14.8797857 113.445557,14.3087568 C113.861374,13.7326672 114.069282,13.0772914 114.069282,12.0904322 L114.069282,12.0912756 Z M116.382471,12.0853714 C116.382471,12.8461808 116.272601,13.421427 116.046945,14.0506552 C115.841256,14.6453132 115.516952,15.1922036 115.09361,15.658308 C114.680528,16.104906 114.17536,16.45684 113.612898,16.6898711 C113.033967,16.9311034 112.143173,17.0694324 111.698622,17.0694324 C111.25238,17.0643715 110.368348,16.9370076 109.795332,16.6898711 C109.236689,16.4534784 108.734401,16.1019457 108.321382,15.658308 C107.909791,15.2137996 107.592013,14.6781965 107.36044,14.0506552 C107.122502,13.4230345 107.004954,12.7563533 107.013927,12.0853714 C107.013927,11.3245619 107.117881,10.5924304 107.349453,9.96994997 C107.562828,9.37829273 107.893371,8.8355623 108.321382,8.37410576 C108.737068,7.93272585 109.240931,7.58331075 109.800403,7.34844691 C110.374264,7.10637118 111.004749,6.99165933 111.68679,6.99165933 C112.369675,6.99165933 112.999315,7.11143199 113.577402,7.34844691 C114.141009,7.57709274 114.646951,7.92734832 115.058958,8.37410576 C115.480791,8.83789331 115.806769,9.38020146 116.01821,9.96994997 C116.260769,10.5924304 116.382471,11.3245619 116.382471,12.0853714 Z M99.3627374,12.0853714 C99.3627374,13.0300571 99.5706455,14.0784897 99.9864618,14.5162503 C100.403123,14.9548544 100.941487,15.1741565 101.600708,15.1741565 C101.959054,15.1741565 102.300497,15.1218614 102.618275,15.0240189 C102.936898,14.9261765 103.190445,14.8106212 103.393282,14.6722922 L103.393282,9.07840276 C102.902089,8.97270794 102.402772,8.90893633 101.900738,8.88777866 C101.080093,8.86416152 100.455523,9.19986236 100.016042,9.73462199 C99.5824777,10.2710686 99.3627374,11.2106935 99.3627374,12.0862148 L99.3627374,12.0853714 Z M105.649001,16.5338292 C105.649001,18.0723175 105.255159,19.1958188 104.462403,19.9110809 C103.671338,20.6246561 102.461921,20.9822871 100.831617,20.9822871 C100.235783,20.9822871 98.9976303,20.8667318 98.0087988,20.6482732 L98.3730607,18.8618049 C99.2013127,19.0347162 100.293253,19.081107 100.866268,19.081107 C101.773965,19.081107 102.421354,18.8963872 102.80928,18.527791 C103.197206,18.1591949 103.387366,17.6117832 103.387366,16.8847125 L103.387366,16.5161164 C103.100531,16.648048 102.804861,16.7599364 102.502489,16.8509738 C102.139072,16.9606248 101.716494,17.0179807 101.241517,17.0179807 C100.616948,17.0179807 100.049848,16.9201383 99.5359942,16.7236099 C99.0350564,16.5384002 98.5823875,16.2428927 98.2116361,15.8590537 C97.8473742,15.4794924 97.557486,15.0012453 97.3554939,14.4302164 C97.1526567,13.8591876 97.0487026,12.8402765 97.0487026,12.0912756 C97.0487026,11.3878221 97.1585728,10.5055531 97.3732422,9.91765486 C97.5929825,9.33060012 97.9048448,8.82283151 98.3274223,8.40278373 C98.7440838,7.98273594 99.2528672,7.65968714 99.8487016,7.42267222 C100.502332,7.16651698 101.198521,7.03574106 101.900738,7.0371945 C102.636023,7.0371945 103.312147,7.12914485 103.971368,7.23963935 C104.630589,7.34844691 105.191772,7.46315876 105.649001,7.58967917 L105.649001,16.5346727 L105.649001,16.5338292 Z M69.5025614,6.24181499 L69.5025614,5.59065657 C69.5020949,5.13539906 69.1321672,4.76658692 68.6759996,4.76658692 L66.7490459,4.76658692 C66.2928784,4.76658692 65.9229506,5.13539906 65.9224842,5.59065657 L65.9224842,6.25952785 C65.9224842,6.33375316 65.9917869,6.38604826 66.0670057,6.36917888 C66.6120028,6.21204559 67.1765094,6.13253622 67.7437935,6.13300743 C68.2931444,6.13300743 68.8382694,6.20723274 69.3639559,6.35146602 C69.4332586,6.36833541 69.5025614,6.31772724 69.5025614,6.24181499 Z M64.2220321,7.09371914 L63.8924216,6.76560952 C63.7375589,6.61098562 63.5274779,6.52411292 63.3084194,6.52411292 C63.0893608,6.52411292 62.8792798,6.61098562 62.7244172,6.76560952 L62.3314201,7.15782281 C62.1761732,7.31186722 62.0888809,7.52133284 62.0888809,7.73981674 C62.0888809,7.95830063 62.1761732,8.16776625 62.3314201,8.32181066 L62.6551145,8.64485946 C62.7075141,8.6963111 62.7818877,8.68450252 62.8283713,8.63305089 C63.0193763,8.37410576 63.2272845,8.12612575 63.458857,7.89585858 C63.6963456,7.65968714 63.9389051,7.45219365 64.205129,7.26241303 C64.2625995,7.22698731 64.2685156,7.14685771 64.2220321,7.09371914 Z M67.7378774,9.1627497 L67.7378774,11.9807811 C67.7378774,12.0617542 67.8257736,12.1199536 67.9001472,12.0794671 L70.410258,10.7830545 C70.4677285,10.7543766 70.4854768,10.6843686 70.4567415,10.6278561 C69.9212713,9.6881801 68.9361409,9.09253498 67.8536637,9.05394214 C67.7961931,9.05394214 67.7387226,9.09948949 67.7387226,9.16359317 L67.7378774,9.1627497 Z M67.7387226,15.9518387 C65.645387,15.9523033 63.9472403,14.2605632 63.943976,12.1714052 C63.9467747,10.0820542 65.6451943,8.3900422 67.7387226,8.39097477 C69.8319209,8.39050782 71.5298256,10.0823836 71.532624,12.1714052 C71.5321763,13.1750702 71.1320141,14.1374006 70.4202636,14.8464658 C69.7085131,15.5555311 68.7435474,15.9531784 67.7378774,15.9518387 L67.7387226,15.9518387 Z M67.7378774,6.80019177 C65.8161494,6.80019177 64.0403995,7.82337656 63.0795355,9.48432241 C62.1186715,11.1452683 62.1186715,13.1916379 63.0795355,14.8525838 C64.0403995,16.5135296 65.8161494,17.5367147 67.7378774,17.5367147 C69.1657071,17.5371619 70.5352347,16.9715192 71.5451797,15.9642213 C72.5551247,14.9569233 73.1227577,13.5904828 73.1232062,12.165501 C73.1236579,10.7410094 72.5562135,9.37486749 71.5460612,8.36847052 C70.5359088,7.36207354 69.1660581,6.79812255 67.7387226,6.80103524 L67.7378774,6.80019177 Z" id="Combined-Shape"></path>
        </g>
    </g>
</svg>